<svg width="32" height="32" viewBox="0 0 32 32" fill="none" xmlns="http://www.w3.org/2000/svg">
<path d="M14.6667 6.24002V11.4133C14.6656 12.0577 14.474 12.6873 14.116 13.223C13.758 13.7587 13.2496 14.1765 12.6547 14.424C12.2611 14.5864 11.8391 14.6689 11.4134 14.6667H6.24004C5.37951 14.6632 4.55544 14.3188 3.9482 13.7091C3.34096 13.0994 3.00003 12.2739 3.00004 11.4133V6.25335C3.00003 5.39282 3.34096 4.56733 3.9482 3.9576C4.55544 3.34786 5.37951 3.00354 6.24004 3.00002H11.4134C12.2739 3.00001 13.0994 3.34094 13.7091 3.94818C14.3189 4.55541 14.6632 5.37949 14.6667 6.24002ZM29 6.25335V11.4133C29.0021 11.8393 28.9195 12.2614 28.757 12.6551C28.5945 13.0488 28.3553 13.4062 28.0534 13.7067C27.7555 14.013 27.3988 14.2559 27.0047 14.4208C26.6106 14.5858 26.1873 14.6694 25.76 14.6667H20.5867C19.9439 14.6659 19.3156 14.4754 18.7806 14.1192C18.2455 13.7629 17.8274 13.2567 17.5787 12.664C17.4139 12.2678 17.3305 11.8425 17.3334 11.4133V6.25335C17.3316 5.82627 17.4157 5.4032 17.5806 5.00924C17.7455 4.61529 17.9879 4.25848 18.2934 3.96002C18.5932 3.65629 18.9502 3.41506 19.3439 3.25027C19.7375 3.08549 20.16 3.00043 20.5867 3.00002H25.76C26.6206 3.00354 27.4446 3.34786 28.0519 3.9576C28.6591 4.56733 29 5.39282 29 6.25335ZM14.6667 20.6V25.76C14.6632 26.6205 14.3189 27.4446 13.7091 28.0519C13.0994 28.6591 12.2739 29 11.4134 29H6.24004C5.38084 28.9983 4.55691 28.6582 3.9467 28.0534C3.64479 27.7529 3.40563 27.3954 3.24311 27.0017C3.08059 26.608 2.99797 26.1859 3.00004 25.76V20.6C2.99797 20.1741 3.08059 19.752 3.24311 19.3583C3.40563 18.9646 3.64479 18.6071 3.9467 18.3067C4.55421 17.6945 5.37763 17.345 6.24004 17.3333H11.4134C12.2763 17.3404 13.1018 17.6872 13.7108 18.2987C14.3198 18.9102 14.6632 19.737 14.6667 20.6ZM29 23.1733C28.9974 24.3246 28.6538 25.4493 28.0125 26.4054C27.3713 27.3616 26.4611 28.1063 25.397 28.5457C24.3329 28.985 23.1624 29.0993 22.0334 28.8741C20.9044 28.6488 19.8674 28.0941 19.0533 27.2801C18.2392 26.466 17.6846 25.429 17.4593 24.3C17.2341 23.171 17.3483 22.0005 17.7877 20.9364C18.2271 19.8723 18.9718 18.9621 19.9279 18.3209C20.8841 17.6796 22.0088 17.336 23.16 17.3333C24.3153 17.3366 25.4439 17.6808 26.4043 18.3229C27.3647 18.965 28.1142 19.8763 28.5587 20.9427C28.852 21.6493 29.0014 22.408 29 23.1733Z" fill="white"/>
</svg>
