<svg width="32" height="32" viewBox="0 0 32 32" fill="none" xmlns="http://www.w3.org/2000/svg">
<path d="M11.4092 18H6.2425C5.55796 18.0039 4.90278 18.2785 4.4201 18.764C3.93742 19.2494 3.66649 19.9061 3.6665 20.5907V25.7573C3.6665 26.4405 3.9379 27.0957 4.421 27.5788C4.90409 28.0619 5.55931 28.3333 6.2425 28.3333H11.4092C12.0936 28.3333 12.7502 28.0624 13.2354 27.5797C13.7206 27.0969 13.995 26.4418 13.9985 25.7573V20.5907C13.9985 19.9039 13.7257 19.2453 13.2401 18.7597C12.7545 18.2741 12.0959 18.0013 11.4092 18.0013M11.4092 3.66667H6.2425C5.90422 3.66667 5.56925 3.7333 5.25671 3.86276C4.94418 3.99221 4.6602 4.18196 4.421 4.42116C4.18179 4.66037 3.99205 4.94434 3.86259 5.25688C3.73313 5.56941 3.6665 5.90439 3.6665 6.24267V11.4093C3.66649 12.0938 3.93747 12.7504 4.42018 13.2356C4.9029 13.7208 5.55808 13.9951 6.2425 13.9987H11.4092C12.0959 13.9987 12.7545 13.7259 13.2401 13.2403C13.7257 12.7547 13.9985 12.0961 13.9985 11.4093V6.24267C13.995 5.55825 13.7206 4.90306 13.2354 4.42035C12.7502 3.93764 12.0936 3.66666 11.4092 3.66667ZM25.7572 3.66667H20.5905C19.9061 3.66666 19.2495 3.93764 18.7643 4.42035C18.2791 4.90306 18.0047 5.55825 18.0012 6.24267V11.4093C18.0015 12.096 18.2744 12.7544 18.76 13.2399C19.2455 13.7254 19.9039 13.9983 20.5905 13.9987H25.7572C26.4416 13.9951 27.0968 13.7208 27.5795 13.2356C28.0622 12.7504 28.3332 12.0938 28.3332 11.4093V6.24267C28.3332 5.55947 28.0618 4.90426 27.5787 4.42116C27.0956 3.93807 26.4404 3.66667 25.7572 3.66667ZM23.1665 18C21.7962 18 20.4821 18.5443 19.5131 19.5133C18.5442 20.4822 17.9998 21.7964 17.9998 23.1667C17.9998 24.537 18.5442 25.8511 19.5131 26.8201C20.4821 27.789 21.7962 28.3333 23.1665 28.3333C24.5368 28.3333 25.8509 27.789 26.8199 26.8201C27.7888 25.8511 28.3332 24.537 28.3332 23.1667C28.3332 21.7964 27.7888 20.4822 26.8199 19.5133C25.8509 18.5443 24.5368 18 23.1665 18Z" stroke="white" stroke-width="1.5" stroke-linecap="round" stroke-linejoin="round"/>
</svg>
