<svg width="32" height="32" viewBox="0 0 32 32" fill="none" xmlns="http://www.w3.org/2000/svg">
<path fill-rule="evenodd" clip-rule="evenodd" d="M14.3947 2.992C16.8707 2.43466 18.6667 4.56266 18.6667 6.66666V25.3333C18.6667 27.4373 16.8707 29.5653 14.3947 29.008C8.44533 27.6693 4 22.3547 4 16C4 9.64533 8.44533 4.33066 14.3947 2.992ZM21.724 11.0573C21.974 10.8074 22.3131 10.6669 22.6667 10.6669C23.0202 10.6669 23.3593 10.8074 23.6093 11.0573L27.6093 15.0573C27.8593 15.3074 27.9997 15.6464 27.9997 16C27.9997 16.3535 27.8593 16.6926 27.6093 16.9427L23.6093 20.9427C23.3579 21.1855 23.0211 21.3199 22.6715 21.3169C22.3219 21.3139 21.9875 21.1736 21.7402 20.9264C21.493 20.6792 21.3528 20.3448 21.3498 19.9952C21.3467 19.6456 21.4811 19.3088 21.724 19.0573L23.448 17.3333H12C11.6464 17.3333 11.3072 17.1929 11.0572 16.9428C10.8071 16.6928 10.6667 16.3536 10.6667 16C10.6667 15.6464 10.8071 15.3072 11.0572 15.0572C11.3072 14.8071 11.6464 14.6667 12 14.6667H23.448L21.724 12.9427C21.474 12.6926 21.3336 12.3535 21.3336 12C21.3336 11.6464 21.474 11.3074 21.724 11.0573Z" fill="white"/>
</svg>
