<svg width="32" height="32" viewBox="0 0 32 32" fill="none" xmlns="http://www.w3.org/2000/svg">
<path d="M25.3332 16L19.9998 10.6667M25.3332 16L19.9998 21.3333M25.3332 16H11.9998M18.6665 28C17.0906 28 15.5302 27.6896 14.0743 27.0866C12.6184 26.4835 11.2955 25.5996 10.1812 24.4853C9.06692 23.371 8.18301 22.0481 7.57995 20.5922C6.97689 19.1363 6.6665 17.5759 6.6665 16C6.6665 14.4241 6.97689 12.8637 7.57995 11.4078C8.18301 9.95189 9.06692 8.62902 10.1812 7.51472C11.2955 6.40042 12.6184 5.5165 14.0743 4.91345C15.5302 4.31039 17.0906 4 18.6665 4" stroke="white" stroke-width="2" stroke-linecap="round" stroke-linejoin="round"/>
</svg>
