<svg width="32" height="32" viewBox="0 0 32 32" fill="none" xmlns="http://www.w3.org/2000/svg">
<path d="M10.6665 16C12.081 16 13.4375 15.4381 14.4377 14.4379C15.4379 13.4377 15.9998 12.0811 15.9998 10.6667C15.9998 9.25217 15.4379 7.89562 14.4377 6.89543C13.4375 5.89523 12.081 5.33333 10.6665 5.33333C9.25202 5.33333 7.89546 5.89523 6.89527 6.89543C5.89507 7.89562 5.33317 9.25217 5.33317 10.6667C5.33317 12.0811 5.89507 13.4377 6.89527 14.4379C7.89546 15.4381 9.25202 16 10.6665 16ZM22.6665 16C23.7274 16 24.7448 15.5786 25.4949 14.8284C26.2451 14.0783 26.6665 13.0609 26.6665 12C26.6665 10.9391 26.2451 9.92171 25.4949 9.17157C24.7448 8.42142 23.7274 7.99999 22.6665 7.99999C21.6056 7.99999 20.5882 8.42142 19.8381 9.17157C19.0879 9.92171 18.6665 10.9391 18.6665 12C18.6665 13.0609 19.0879 14.0783 19.8381 14.8284C20.5882 15.5786 21.6056 16 22.6665 16ZM5.99984 18.6667C4.15984 18.6667 2.6665 20.16 2.6665 22C2.6665 22 2.6665 28 10.6665 28C17.0078 28 18.3225 24.2293 18.5945 22.6667C18.6665 22.2587 18.6665 22 18.6665 22C18.6665 20.16 17.1732 18.6667 15.3332 18.6667H5.99984ZM21.3225 22.9333C21.3172 23.04 21.3065 23.1662 21.2905 23.312C21.1434 24.4115 20.7614 25.4665 20.1705 26.4053C20.8772 26.568 21.7012 26.6667 22.6638 26.6667C29.3305 26.6667 29.3305 22 29.3305 22C29.3305 20.16 27.8372 18.6667 25.9972 18.6667H20.3198C20.9598 19.6213 21.3305 20.7653 21.3305 22V22.6667L21.3225 22.9333Z" fill="#30324a"/>
</svg>
