<svg width="32" height="32" viewBox="0 0 32 32" fill="none" xmlns="http://www.w3.org/2000/svg">
<path d="M7.99984 10.6667C7.99984 9.95942 8.28079 9.28114 8.78089 8.78104C9.28098 8.28095 9.95926 7.99999 10.6665 7.99999C11.3737 7.99999 12.052 8.28095 12.5521 8.78104C13.0522 9.28114 13.3332 9.95942 13.3332 10.6667C13.3332 11.3739 13.0522 12.0522 12.5521 12.5523C12.052 13.0524 11.3737 13.3333 10.6665 13.3333C9.95926 13.3333 9.28098 13.0524 8.78089 12.5523C8.28079 12.0522 7.99984 11.3739 7.99984 10.6667ZM10.6665 5.33333C9.25202 5.33333 7.89546 5.89523 6.89527 6.89543C5.89507 7.89562 5.33317 9.25217 5.33317 10.6667C5.33317 12.0811 5.89507 13.4377 6.89527 14.4379C7.89546 15.4381 9.25202 16 10.6665 16C12.081 16 13.4375 15.4381 14.4377 14.4379C15.4379 13.4377 15.9998 12.0811 15.9998 10.6667C15.9998 9.25217 15.4379 7.89562 14.4377 6.89543C13.4375 5.89523 12.081 5.33333 10.6665 5.33333ZM21.3332 12C21.3332 11.6464 21.4736 11.3072 21.7237 11.0572C21.9737 10.8071 22.3129 10.6667 22.6665 10.6667C23.0201 10.6667 23.3593 10.8071 23.6093 11.0572C23.8594 11.3072 23.9998 11.6464 23.9998 12C23.9998 12.3536 23.8594 12.6928 23.6093 12.9428C23.3593 13.1929 23.0201 13.3333 22.6665 13.3333C22.3129 13.3333 21.9737 13.1929 21.7237 12.9428C21.4736 12.6928 21.3332 12.3536 21.3332 12ZM22.6665 7.99999C21.6056 7.99999 20.5882 8.42142 19.8381 9.17157C19.0879 9.92171 18.6665 10.9391 18.6665 12C18.6665 13.0609 19.0879 14.0783 19.8381 14.8284C20.5882 15.5786 21.6056 16 22.6665 16C23.7274 16 24.7448 15.5786 25.4949 14.8284C26.2451 14.0783 26.6665 13.0609 26.6665 12C26.6665 10.9391 26.2451 9.92171 25.4949 9.17157C24.7448 8.42142 23.7274 7.99999 22.6665 7.99999ZM2.6665 22C2.6665 20.16 4.15984 18.6667 5.99984 18.6667H15.3332C17.1732 18.6667 18.6665 20.16 18.6665 22V22.128C18.6647 22.2252 18.6576 22.3222 18.6452 22.4187C18.6205 22.6522 18.5804 22.8838 18.5252 23.112C18.3451 23.8495 18.0236 24.545 17.5785 25.16C16.4478 26.7147 14.3412 28 10.6665 28C6.99184 28 4.88517 26.7147 3.7545 25.16C3.17192 24.3516 2.80482 23.4082 2.68784 22.4187L2.6665 22.1253V22ZM5.33317 22.0693L5.3385 22.1413C5.34562 22.2178 5.36606 22.3324 5.39984 22.4853C5.47184 22.7867 5.6185 23.1893 5.91184 23.592C6.44517 24.328 7.67184 25.3333 10.6665 25.3333C13.6612 25.3333 14.8852 24.328 15.4212 23.592C15.7417 23.1436 15.9411 22.62 15.9998 22.072V22C15.9998 21.8232 15.9296 21.6536 15.8046 21.5286C15.6796 21.4036 15.51 21.3333 15.3332 21.3333H5.99984C5.82303 21.3333 5.65346 21.4036 5.52843 21.5286C5.40341 21.6536 5.33317 21.8232 5.33317 22V22.0693ZM22.6638 26.6667C21.7198 26.6631 20.8905 26.5742 20.1758 26.4C20.6616 25.6293 21.0073 24.7789 21.1972 23.888C21.6096 23.9591 22.0985 23.9964 22.6638 24C25.0372 24 25.9385 23.2747 26.2905 22.8347C26.4834 22.5894 26.6118 22.2997 26.6638 21.992V21.9787C26.6583 21.8056 26.5856 21.6414 26.4612 21.521C26.3368 21.4005 26.1703 21.3332 25.9972 21.3333H21.2958C21.1904 20.3791 20.8565 19.4644 20.3225 18.6667H25.9998C27.8398 18.6667 29.3332 20.16 29.3332 22V22.0453C29.3308 22.1282 29.3246 22.211 29.3145 22.2933C29.209 23.1004 28.8844 23.8631 28.3758 24.4987C27.3918 25.7253 25.6292 26.6667 22.6665 26.6667" fill="white"/>
</svg>
