<svg width="25" height="25" viewBox="0 0 25 25" fill="none" xmlns="http://www.w3.org/2000/svg">
<path d="M21.823 21.2595L15.823 15.2595M17.823 10.2595C17.823 11.1787 17.6419 12.089 17.2902 12.9382C16.9384 13.7875 16.4228 14.5592 15.7727 15.2092C15.1227 15.8592 14.3511 16.3748 13.5018 16.7266C12.6525 17.0784 11.7423 17.2595 10.823 17.2595C9.90374 17.2595 8.99349 17.0784 8.14421 16.7266C7.29494 16.3748 6.52326 15.8592 5.87325 15.2092C5.22324 14.5592 4.70762 13.7875 4.35584 12.9382C4.00406 12.089 3.823 11.1787 3.823 10.2595C3.823 8.40295 4.5605 6.62247 5.87325 5.30971C7.18601 3.99696 8.96648 3.25946 10.823 3.25946C12.6795 3.25946 14.46 3.99696 15.7727 5.30971C17.0855 6.62247 17.823 8.40295 17.823 10.2595Z" stroke="#30324A" stroke-width="2" stroke-linecap="round" stroke-linejoin="round"/>
</svg>
