<svg width="25" height="25" viewBox="0 0 25 25" fill="none" xmlns="http://www.w3.org/2000/svg">
<path d="M19.75 7.75029L18.883 19.8923C18.8471 20.3969 18.6213 20.8691 18.2511 21.2139C17.8809 21.5586 17.3939 21.7503 16.888 21.7503H8.612C8.10614 21.7503 7.61907 21.5586 7.24889 21.2139C6.8787 20.8691 6.65292 20.3969 6.617 19.8923L5.75 7.75029M10.75 11.7503V17.7503M14.75 11.7503V17.7503M15.75 7.75029V4.75029C15.75 4.48507 15.6446 4.23072 15.4571 4.04318C15.2696 3.85565 15.0152 3.75029 14.75 3.75029H10.75C10.4848 3.75029 10.2304 3.85565 10.0429 4.04318C9.85536 4.23072 9.75 4.48507 9.75 4.75029V7.75029M4.75 7.75029H20.75" stroke="#f5f5f5" stroke-width="2" stroke-linecap="round" stroke-linejoin="round"/>
</svg>
